<svg width="159" height="32" viewBox="0 0 159 32" fill="none" xmlns="http://www.w3.org/2000/svg">
<path d="M43.8965 13.8601V22.2H41.3379V8.44019H45.1953L47.6562 16.1355C47.7669 16.5652 47.8809 16.9981 47.998 17.4343C48.1152 17.864 48.2292 18.2937 48.3398 18.7234C48.4115 18.476 48.4798 18.2319 48.5449 17.991C48.61 17.7436 48.6751 17.4962 48.7402 17.2488C48.8118 17.0014 48.8835 16.7572 48.9551 16.5164L51.4844 8.44019H55.3223V22.2H52.7637V13.8601C52.7637 13.6713 52.7702 13.2937 52.7832 12.7273C52.8027 12.1544 52.8288 11.5326 52.8613 10.8621C52.6335 11.7345 52.4316 12.4766 52.2559 13.0886C52.0866 13.7006 51.9466 14.1791 51.8359 14.5242L49.3555 22.2H47.3047L44.8242 14.5242L43.7793 10.8621C43.8184 11.6173 43.8477 12.2455 43.8672 12.7468C43.8867 13.2416 43.8965 13.6127 43.8965 13.8601ZM60.3008 7.70776V9.72925H57.5566V7.70776H60.3008ZM60.3008 11.6335V22.2H57.5566V11.6335H60.3008ZM65.3672 16.5359V22.2H62.623V13.9968C62.623 13.4304 62.6133 12.9682 62.5938 12.6101C62.5807 12.2455 62.5645 11.92 62.5449 11.6335H65.1621C65.1751 11.7117 65.1914 11.8972 65.2109 12.1902C65.2305 12.4766 65.2467 12.7729 65.2598 13.0789C65.2793 13.3783 65.2891 13.5964 65.2891 13.7332H65.3281C65.6992 12.9259 66.1647 12.3399 66.7246 11.9753C67.2845 11.6108 67.9518 11.4285 68.7266 11.4285C69.8464 11.4285 70.7057 11.7735 71.3047 12.4636C71.9036 13.1537 72.2031 14.1628 72.2031 15.491V22.2H69.4688V16.2722C69.4688 15.3412 69.3125 14.6446 69 14.1824C68.6875 13.7201 68.2155 13.489 67.584 13.489C66.9199 13.489 66.3828 13.7755 65.9727 14.3484C65.569 14.9148 65.3672 15.644 65.3672 16.5359ZM81.1953 22.2C81.1823 22.1348 81.1628 21.9981 81.1367 21.7898C81.1107 21.5815 81.0879 21.3536 81.0684 21.1062C81.0553 20.8588 81.0488 20.6505 81.0488 20.4812H81.0098C80.7103 21.1192 80.2806 21.5977 79.7207 21.9167C79.1608 22.2358 78.4642 22.3953 77.6309 22.3953C76.4004 22.3953 75.4499 21.9167 74.7793 20.9597C74.1087 19.9962 73.7734 18.6518 73.7734 16.9265C73.7734 15.1752 74.125 13.8243 74.8281 12.8738C75.5378 11.9167 76.5404 11.4382 77.8359 11.4382C78.5846 11.4382 79.2292 11.5945 79.7695 11.907C80.3164 12.2195 80.7363 12.685 81.0293 13.3035H81.0488L81.0293 11.5652V7.70776H83.7734V19.8953C83.7734 20.2208 83.7799 20.5756 83.793 20.9597C83.806 21.3438 83.8255 21.7572 83.8516 22.2H81.1953ZM76.6348 16.9265C76.6348 18.1244 76.8138 19.0229 77.1719 19.6218C77.5365 20.2208 78.0768 20.5203 78.793 20.5203C79.5156 20.5203 80.0755 20.2045 80.4727 19.573C80.8698 18.935 81.0684 18.03 81.0684 16.8582C81.0684 15.7188 80.8763 14.8432 80.4922 14.2312C80.1146 13.6127 79.5547 13.3035 78.8125 13.3035C78.0768 13.3035 77.5299 13.6029 77.1719 14.2019C76.8138 14.7944 76.6348 15.7026 76.6348 16.9265ZM96.2812 19.9734V22.2H86.0176V8.44019H88.8984V19.9734H96.2812ZM100.068 17.4441C100.068 18.4727 100.257 19.2507 100.635 19.7781C101.019 20.2989 101.562 20.5593 102.266 20.5593C102.747 20.5593 103.141 20.4552 103.447 20.2468C103.76 20.032 103.978 19.7162 104.102 19.2996L106.689 19.5242C105.941 21.4382 104.421 22.3953 102.129 22.3953C100.54 22.3953 99.3197 21.9265 98.4668 20.989C97.6139 20.045 97.1875 18.6713 97.1875 16.8679C97.1875 15.1231 97.6204 13.782 98.4863 12.8445C99.3522 11.907 100.579 11.4382 102.168 11.4382C103.685 11.4382 104.844 11.9428 105.645 12.9519C106.445 13.9545 106.846 15.4259 106.846 17.366V17.4441H100.068ZM104.189 15.7253C104.137 14.8725 103.932 14.2345 103.574 13.8113C103.216 13.3816 102.734 13.1667 102.129 13.1667C101.484 13.1667 100.986 13.3914 100.635 13.8406C100.29 14.2898 100.107 14.9181 100.088 15.7253H104.189ZM111.18 16.5359V22.2H108.436V13.9968C108.436 13.4304 108.426 12.9682 108.406 12.6101C108.393 12.2455 108.377 11.92 108.357 11.6335H110.975C110.988 11.7117 111.004 11.8972 111.023 12.1902C111.043 12.4766 111.059 12.7729 111.072 13.0789C111.092 13.3783 111.102 13.5964 111.102 13.7332H111.141C111.512 12.9259 111.977 12.3399 112.537 11.9753C113.097 11.6108 113.764 11.4285 114.539 11.4285C115.659 11.4285 116.518 11.7735 117.117 12.4636C117.716 13.1537 118.016 14.1628 118.016 15.491V22.2H115.281V16.2722C115.281 15.3412 115.125 14.6446 114.812 14.1824C114.5 13.7201 114.028 13.489 113.396 13.489C112.732 13.489 112.195 13.7755 111.785 14.3484C111.382 14.9148 111.18 15.644 111.18 16.5359ZM129.068 19.114C129.068 20.1361 128.648 20.9402 127.809 21.5261C126.975 22.1056 125.82 22.3953 124.342 22.3953C122.89 22.3953 121.777 22.1674 121.002 21.7117C120.234 21.2494 119.723 20.5333 119.469 19.5632L121.881 19.2019C122.018 19.7032 122.252 20.058 122.584 20.2664C122.923 20.4747 123.508 20.5789 124.342 20.5789C125.11 20.5789 125.67 20.4812 126.021 20.2859C126.373 20.0906 126.549 19.7846 126.549 19.3679C126.549 19.0294 126.406 18.7625 126.119 18.5671C125.839 18.3653 125.361 18.196 124.684 18.0593C124.169 17.9552 123.707 17.8542 123.297 17.7566C122.893 17.6589 122.545 17.5645 122.252 17.4734C121.965 17.3757 121.731 17.2846 121.549 17.2C121.008 16.933 120.595 16.5912 120.309 16.1746C120.029 15.7579 119.889 15.2436 119.889 14.6316C119.889 13.6225 120.276 12.838 121.051 12.2781C121.832 11.7117 122.936 11.4285 124.361 11.4285C125.618 11.4285 126.627 11.6726 127.389 12.1609C128.157 12.6492 128.635 13.3556 128.824 14.28L126.393 14.5339C126.314 14.1042 126.122 13.7852 125.816 13.5769C125.51 13.3621 125.025 13.2546 124.361 13.2546C123.71 13.2546 123.222 13.3393 122.896 13.5085C122.571 13.6713 122.408 13.948 122.408 14.3386C122.408 14.6446 122.532 14.8888 122.779 15.071C123.033 15.2468 123.456 15.3933 124.049 15.5105C124.876 15.6798 125.608 15.8556 126.246 16.0378C126.891 16.2136 127.408 16.4252 127.799 16.6726C128.183 16.92 128.489 17.239 128.717 17.6296C128.951 18.0138 129.068 18.5085 129.068 19.114Z" fill="url(#paint0_linear_25_3861)"/>
<path d="M43.8965 13.8601V22.2H41.3379V8.44019H45.1953L47.6562 16.1355C47.7669 16.5652 47.8809 16.9981 47.998 17.4343C48.1152 17.864 48.2292 18.2937 48.3398 18.7234C48.4115 18.476 48.4798 18.2319 48.5449 17.991C48.61 17.7436 48.6751 17.4962 48.7402 17.2488C48.8118 17.0014 48.8835 16.7572 48.9551 16.5164L51.4844 8.44019H55.3223V22.2H52.7637V13.8601C52.7637 13.6713 52.7702 13.2937 52.7832 12.7273C52.8027 12.1544 52.8288 11.5326 52.8613 10.8621C52.6335 11.7345 52.4316 12.4766 52.2559 13.0886C52.0866 13.7006 51.9466 14.1791 51.8359 14.5242L49.3555 22.2H47.3047L44.8242 14.5242L43.7793 10.8621C43.8184 11.6173 43.8477 12.2455 43.8672 12.7468C43.8867 13.2416 43.8965 13.6127 43.8965 13.8601ZM60.3008 7.70776V9.72925H57.5566V7.70776H60.3008ZM60.3008 11.6335V22.2H57.5566V11.6335H60.3008ZM65.3672 16.5359V22.2H62.623V13.9968C62.623 13.4304 62.6133 12.9682 62.5938 12.6101C62.5807 12.2455 62.5645 11.92 62.5449 11.6335H65.1621C65.1751 11.7117 65.1914 11.8972 65.2109 12.1902C65.2305 12.4766 65.2467 12.7729 65.2598 13.0789C65.2793 13.3783 65.2891 13.5964 65.2891 13.7332H65.3281C65.6992 12.9259 66.1647 12.3399 66.7246 11.9753C67.2845 11.6108 67.9518 11.4285 68.7266 11.4285C69.8464 11.4285 70.7057 11.7735 71.3047 12.4636C71.9036 13.1537 72.2031 14.1628 72.2031 15.491V22.2H69.4688V16.2722C69.4688 15.3412 69.3125 14.6446 69 14.1824C68.6875 13.7201 68.2155 13.489 67.584 13.489C66.9199 13.489 66.3828 13.7755 65.9727 14.3484C65.569 14.9148 65.3672 15.644 65.3672 16.5359ZM81.1953 22.2C81.1823 22.1348 81.1628 21.9981 81.1367 21.7898C81.1107 21.5815 81.0879 21.3536 81.0684 21.1062C81.0553 20.8588 81.0488 20.6505 81.0488 20.4812H81.0098C80.7103 21.1192 80.2806 21.5977 79.7207 21.9167C79.1608 22.2358 78.4642 22.3953 77.6309 22.3953C76.4004 22.3953 75.4499 21.9167 74.7793 20.9597C74.1087 19.9962 73.7734 18.6518 73.7734 16.9265C73.7734 15.1752 74.125 13.8243 74.8281 12.8738C75.5378 11.9167 76.5404 11.4382 77.8359 11.4382C78.5846 11.4382 79.2292 11.5945 79.7695 11.907C80.3164 12.2195 80.7363 12.685 81.0293 13.3035H81.0488L81.0293 11.5652V7.70776H83.7734V19.8953C83.7734 20.2208 83.7799 20.5756 83.793 20.9597C83.806 21.3438 83.8255 21.7572 83.8516 22.2H81.1953ZM76.6348 16.9265C76.6348 18.1244 76.8138 19.0229 77.1719 19.6218C77.5365 20.2208 78.0768 20.5203 78.793 20.5203C79.5156 20.5203 80.0755 20.2045 80.4727 19.573C80.8698 18.935 81.0684 18.03 81.0684 16.8582C81.0684 15.7188 80.8763 14.8432 80.4922 14.2312C80.1146 13.6127 79.5547 13.3035 78.8125 13.3035C78.0768 13.3035 77.5299 13.6029 77.1719 14.2019C76.8138 14.7944 76.6348 15.7026 76.6348 16.9265ZM96.2812 19.9734V22.2H86.0176V8.44019H88.8984V19.9734H96.2812ZM100.068 17.4441C100.068 18.4727 100.257 19.2507 100.635 19.7781C101.019 20.2989 101.562 20.5593 102.266 20.5593C102.747 20.5593 103.141 20.4552 103.447 20.2468C103.76 20.032 103.978 19.7162 104.102 19.2996L106.689 19.5242C105.941 21.4382 104.421 22.3953 102.129 22.3953C100.54 22.3953 99.3197 21.9265 98.4668 20.989C97.6139 20.045 97.1875 18.6713 97.1875 16.8679C97.1875 15.1231 97.6204 13.782 98.4863 12.8445C99.3522 11.907 100.579 11.4382 102.168 11.4382C103.685 11.4382 104.844 11.9428 105.645 12.9519C106.445 13.9545 106.846 15.4259 106.846 17.366V17.4441H100.068ZM104.189 15.7253C104.137 14.8725 103.932 14.2345 103.574 13.8113C103.216 13.3816 102.734 13.1667 102.129 13.1667C101.484 13.1667 100.986 13.3914 100.635 13.8406C100.29 14.2898 100.107 14.9181 100.088 15.7253H104.189ZM111.18 16.5359V22.2H108.436V13.9968C108.436 13.4304 108.426 12.9682 108.406 12.6101C108.393 12.2455 108.377 11.92 108.357 11.6335H110.975C110.988 11.7117 111.004 11.8972 111.023 12.1902C111.043 12.4766 111.059 12.7729 111.072 13.0789C111.092 13.3783 111.102 13.5964 111.102 13.7332H111.141C111.512 12.9259 111.977 12.3399 112.537 11.9753C113.097 11.6108 113.764 11.4285 114.539 11.4285C115.659 11.4285 116.518 11.7735 117.117 12.4636C117.716 13.1537 118.016 14.1628 118.016 15.491V22.2H115.281V16.2722C115.281 15.3412 115.125 14.6446 114.812 14.1824C114.5 13.7201 114.028 13.489 113.396 13.489C112.732 13.489 112.195 13.7755 111.785 14.3484C111.382 14.9148 111.18 15.644 111.18 16.5359ZM129.068 19.114C129.068 20.1361 128.648 20.9402 127.809 21.5261C126.975 22.1056 125.82 22.3953 124.342 22.3953C122.89 22.3953 121.777 22.1674 121.002 21.7117C120.234 21.2494 119.723 20.5333 119.469 19.5632L121.881 19.2019C122.018 19.7032 122.252 20.058 122.584 20.2664C122.923 20.4747 123.508 20.5789 124.342 20.5789C125.11 20.5789 125.67 20.4812 126.021 20.2859C126.373 20.0906 126.549 19.7846 126.549 19.3679C126.549 19.0294 126.406 18.7625 126.119 18.5671C125.839 18.3653 125.361 18.196 124.684 18.0593C124.169 17.9552 123.707 17.8542 123.297 17.7566C122.893 17.6589 122.545 17.5645 122.252 17.4734C121.965 17.3757 121.731 17.2846 121.549 17.2C121.008 16.933 120.595 16.5912 120.309 16.1746C120.029 15.7579 119.889 15.2436 119.889 14.6316C119.889 13.6225 120.276 12.838 121.051 12.2781C121.832 11.7117 122.936 11.4285 124.361 11.4285C125.618 11.4285 126.627 11.6726 127.389 12.1609C128.157 12.6492 128.635 13.3556 128.824 14.28L126.393 14.5339C126.314 14.1042 126.122 13.7852 125.816 13.5769C125.51 13.3621 125.025 13.2546 124.361 13.2546C123.71 13.2546 123.222 13.3393 122.896 13.5085C122.571 13.6713 122.408 13.948 122.408 14.3386C122.408 14.6446 122.532 14.8888 122.779 15.071C123.033 15.2468 123.456 15.3933 124.049 15.5105C124.876 15.6798 125.608 15.8556 126.246 16.0378C126.891 16.2136 127.408 16.4252 127.799 16.6726C128.183 16.92 128.489 17.239 128.717 17.6296C128.951 18.0138 129.068 18.5085 129.068 19.114Z" fill="#0A0A0A"/>
<path d="M139.197 15.823V18.2058H134.119V15.823H139.197ZM144.097 18.6843L142.876 22.2H139.996L145.015 8.44019H148.414L153.414 22.2H150.562L149.341 18.6843H144.097ZM146.714 10.5593C146.649 10.8197 146.558 11.1322 146.441 11.4968C146.324 11.8614 146.239 12.1186 146.187 12.2683L144.742 16.5164H148.697L147.212 12.1804C147.121 11.9135 147.037 11.6433 146.958 11.3699C146.88 11.0964 146.799 10.8263 146.714 10.5593ZM157.669 8.44019V22.2H154.789V8.44019H157.669Z" fill="#09B2A3"/>
<path opacity="0.8" d="M14.8801 27.8001C22.7667 27.8001 29.1601 21.7112 29.1601 14.2001C29.1601 6.68902 22.7667 0.600098 14.8801 0.600098C6.99346 0.600098 0.600098 6.68902 0.600098 14.2001C0.600098 21.7112 6.99346 27.8001 14.8801 27.8001Z" stroke="url(#paint1_linear_25_3861)" stroke-width="1.2"/>
<g opacity="0.65">
<path d="M14.76 25.4C21.2549 25.4 26.52 20.3856 26.52 14.2C26.52 8.0144 21.2549 3 14.76 3C8.26512 3 3 8.0144 3 14.2C3 20.3856 8.26512 25.4 14.76 25.4Z" stroke="url(#paint2_linear_25_3861)" stroke-width="0.8"/>
</g>
<path opacity="0.71" d="M13.5 5C11 5 8.83333 6.61905 8.83333 9.04762C8.83333 9.85714 9 10.6667 9.33333 11.3143C8.5 11.6381 8 12.4476 8 13.419C8 14.3905 8.5 15.2 9.33333 15.5238C9.33333 16.3333 9.5 17.1429 9.83333 17.7905C10.1667 18.4381 10.6667 18.9238 11.3333 19.2476C11.3333 20.0571 11.6667 20.7048 12.1667 21.1905C12.6667 21.6762 13.3333 22 14 22C14.6667 22 15.3333 21.6762 15.8333 21.1905C16.3333 20.7048 16.6667 20.0571 16.6667 19.2476C17.3333 18.9238 17.8333 18.4381 18.1667 17.7905C18.5 17.1429 18.6667 16.3333 18.6667 15.5238C19.5 15.2 20 14.3905 20 13.419C20 12.4476 19.5 11.6381 18.6667 11.3143C19 10.6667 19.1667 9.85714 19.1667 9.04762C19.1667 6.61905 17 5 14.5 5C14 5 13.5 5 13.5 5Z" fill="url(#paint3_linear_25_3861)"/>
<path d="M8.6 15.2C8.93137 15.2 9.2 14.9314 9.2 14.6C9.2 14.2686 8.93137 14 8.6 14C8.26863 14 8 14.2686 8 14.6C8 14.9314 8.26863 15.2 8.6 15.2Z" fill="#0D9488"/>
<path d="M19.48 14.96C19.7451 14.96 19.96 14.7451 19.96 14.48C19.96 14.2149 19.7451 14 19.48 14C19.2149 14 19 14.2149 19 14.48C19 14.7451 19.2149 14.96 19.48 14.96Z" fill="#0D9488"/>
<path d="M14.48 21.96C14.7451 21.96 14.96 21.7451 14.96 21.48C14.96 21.2149 14.7451 21 14.48 21C14.2149 21 14 21.2149 14 21.48C14 21.7451 14.2149 21.96 14.48 21.96Z" fill="#0F766E"/>
<path d="M14.4 5.8C14.6209 5.8 14.8 5.62091 14.8 5.4C14.8 5.17909 14.6209 5 14.4 5C14.1791 5 14 5.17909 14 5.4C14 5.62091 14.1791 5.8 14.4 5.8Z" fill="#0D9488"/>
<path opacity="0.3" d="M15 5L19 15" stroke="#0D9488" stroke-width="0.2"/>
<path opacity="0.3" d="M9 15L14 21" stroke="#0D9488" stroke-width="0.2"/>
<path opacity="0.3" d="M19 15L15 21" stroke="#0D9488" stroke-width="0.2"/>
<path opacity="0.3" d="M14 5L9 15" stroke="#0D9488" stroke-width="0.2"/>
<path opacity="0.3" d="M14.5 21.5L14 5" stroke="#0D9488" stroke-width="0.2"/>
<path opacity="0.2" d="M8 10H24" stroke="white" stroke-width="0.4" stroke-linecap="round"/>
<path opacity="0.4" d="M4.2 17H3V17.32H4.2V17Z" fill="#0D9488"/>
<path opacity="0.4" d="M26 17.2H24.8V17.52H26V17.2Z" fill="#0D9488"/>
<path opacity="0.4" d="M14.32 2H14V3.2H14.32V2Z" fill="#0F766E"/>
<path opacity="0.4" d="M15.9201 25.6001H15.6001V26.8001H15.9201V25.6001Z" fill="#0D9488"/>
<defs>
<linearGradient id="paint0_linear_25_3861" x1="40" y1="15.2" x2="130" y2="15.2" gradientUnits="userSpaceOnUse">
<stop stop-color="#0D9488"/>
<stop offset="0.5" stop-color="#0F766E"/>
<stop offset="1" stop-color="#0D9488"/>
</linearGradient>
<linearGradient id="paint1_linear_25_3861" x1="0.600098" y1="0.600098" x2="2717.37" y2="2853.2" gradientUnits="userSpaceOnUse">
<stop stop-color="#0D9488"/>
<stop offset="0.5" stop-color="#0F766E"/>
<stop offset="1" stop-color="#0D9488"/>
</linearGradient>
<linearGradient id="paint2_linear_25_3861" x1="3" y1="3" x2="2240.34" y2="2352.2" gradientUnits="userSpaceOnUse">
<stop stop-color="#0D9488"/>
<stop offset="0.5" stop-color="#0F766E"/>
<stop offset="1" stop-color="#0D9488"/>
</linearGradient>
<linearGradient id="paint3_linear_25_3861" x1="8" y1="5" x2="1609.85" y2="1135.72" gradientUnits="userSpaceOnUse">
<stop stop-color="#14B8A6"/>
<stop offset="1" stop-color="#0D9488"/>
</linearGradient>
</defs>
</svg>
